<svg width="24" height="24" viewBox="0 0 24 24" fill="none" xmlns="http://www.w3.org/2000/svg">
<path d="M16.0167 10.1333C16.3096 9.84043 16.3096 9.36555 16.0167 9.07266C15.7238 8.77977 15.2489 8.77977 14.956 9.07266L10.5973 13.4313L8.97467 11.8087C8.68177 11.5158 8.2069 11.5158 7.91401 11.8087C7.62111 12.1016 7.62111 12.5764 7.91401 12.8693L10.081 15.0363C10.3739 15.3292 10.8488 15.3292 11.1417 15.0363C11.1835 14.9945 11.2194 14.9489 11.2492 14.9007L16.0167 10.1333Z" fill="#22B217"/>
<path fill-rule="evenodd" clip-rule="evenodd" d="M12 2.25C6.61522 2.25 2.25 6.61522 2.25 12C2.25 17.3848 6.61522 21.75 12 21.75C17.3848 21.75 21.75 17.3848 21.75 12C21.75 6.61522 17.3848 2.25 12 2.25ZM12 3.75C7.44365 3.75 3.75 7.44365 3.75 12C3.75 16.5563 7.44365 20.25 12 20.25C16.5563 20.25 20.25 16.5563 20.25 12C20.25 7.44365 16.5563 3.75 12 3.75Z" fill="#22B217"/>
</svg>
