<svg width="24" height="24" viewBox="0 0 24 24" fill="none" xmlns="http://www.w3.org/2000/svg">
<path fill-rule="evenodd" clip-rule="evenodd" d="M9.20865 6.38701L10.7885 8.5588C11.0322 8.89377 10.9582 9.36284 10.6232 9.6065C10.2882 9.85017 9.81916 9.77616 9.5755 9.4412L7.9955 7.2692C7.75965 6.94475 7.38153 6.75285 6.97868 6.754L3.00321 6.77099C2.589 6.77276 2.25178 6.43842 2.25001 6.02421C2.24824 5.61 2.58258 5.27278 2.99679 5.27101L6.97279 5.25401C7.85573 5.25126 8.68856 5.67167 9.20865 6.38701Z" fill="#5C5C5C"/>
<path d="M19.5303 3.46967C19.2374 3.17678 18.7626 3.17678 18.4697 3.46967C18.1768 3.76256 18.1768 4.23744 18.4697 4.53033L19.2045 5.26517L17.0275 5.25401C16.1429 5.24998 15.3109 5.67232 14.7913 6.38701L7.99535 15.731C7.75956 16.0554 7.38108 16.2471 6.97833 16.246L3.00321 16.229C2.589 16.2272 2.25178 16.5616 2.25001 16.9758C2.24824 17.39 2.58258 17.7272 2.99679 17.729L6.97367 17.746C7.85669 17.7487 8.68857 17.3285 9.20865 16.613L16.0047 7.26899C16.2411 6.94376 16.6195 6.75212 17.0208 6.75399L19.1761 6.76321L18.4697 7.46967C18.1768 7.76256 18.1768 8.23744 18.4697 8.53033C18.7626 8.82322 19.2374 8.82322 19.5303 8.53033L21.5303 6.53033C21.8232 6.23744 21.8232 5.76256 21.5303 5.46967L19.5303 3.46967Z" fill="#5C5C5C"/>
<path d="M19.5303 14.4487C19.2374 14.1558 18.7626 14.1558 18.4697 14.4487C18.1768 14.7416 18.1768 15.2164 18.4697 15.5093L19.2045 16.2442L17.0214 16.246C16.6185 16.2472 16.2404 16.0553 16.0045 15.7308L14.4245 13.5588C14.1808 13.2238 13.7118 13.1498 13.3768 13.3935C13.0418 13.6372 12.9678 14.1062 13.2115 14.4412L14.7915 16.6132C15.3116 17.3285 16.1443 17.7487 17.0272 17.746L19.1816 17.7368L18.4697 18.4487C18.1768 18.7416 18.1768 19.2164 18.4697 19.5093C18.7626 19.8022 19.2374 19.8022 19.5303 19.5093L21.5303 17.5093C21.8232 17.2164 21.8232 16.7416 21.5303 16.4487L19.5303 14.4487Z" fill="#5C5C5C"/>
</svg>
