<svg width="24" height="24" viewBox="0 0 24 24" fill="none" xmlns="http://www.w3.org/2000/svg">
<path fill-rule="evenodd" clip-rule="evenodd" d="M12 21.8C6.60001 21.8 2.20001 17.4 2.20001 12C2.20001 6.6 6.60001 2.3 12 2.3C17.4 2.3 21.8 6.7 21.8 12.1C21.8 17.5 17.4 21.8 12 21.8ZM3.70001 12.1C3.70001 7.5 7.50001 3.8 12 3.8C16.5 3.8 20.3 7.5 20.3 12.1C20.3 16.7 16.6 20.4 12 20.4C7.40001 20.4 3.70001 16.7 3.70001 12.1Z" fill="#EE215B"/>
<path d="M12 13.3C11.6 13.3 11.2 13 11.2 12.5V7.5C11.2 7.1 11.5 6.7 12 6.7C12.5 6.7 12.8 7 12.8 7.5V12.5C12.8 12.9 12.4 13.3 12 13.3Z" fill="#EE215B"/>
<path d="M12 17.3C11.4 17.3 11 16.9 11 16.3C11 16 11.1 15.8 11.3 15.6C11.5 15.4 11.7 15.3 12 15.3C12.6 15.3 13 15.7 13 16.3C13 16.9 12.6 17.3 12 17.3Z" fill="#EE215B"/>
</svg>
