<svg width="24" height="24" viewBox="0 0 24 24" fill="none" xmlns="http://www.w3.org/2000/svg">
<path d="M17.3944 3.84395C18.7485 3.39257 20.5364 3.27751 22.3219 4.17024C22.6923 4.35548 23.1428 4.20531 23.3281 3.83483C23.5133 3.46434 23.3632 3.01384 22.9927 2.8286C20.7781 1.72132 18.5661 1.87226 16.9201 2.42093C16.5271 2.55192 16.3148 2.97666 16.4458 3.36962C16.5767 3.76257 17.0015 3.97494 17.3944 3.84395Z" fill="#5C5C5C"/>
<path d="M18.8392 6.72705C19.6822 6.51631 20.2605 6.62998 20.6651 6.80981C21.0891 6.99824 21.3793 7.28217 21.6269 7.52978C21.9198 7.82267 22.3947 7.82267 22.6876 7.52977C22.9805 7.23688 22.9805 6.762 22.6876 6.46911L22.6758 6.45731C22.421 6.20242 21.9646 5.74587 21.2744 5.43909C20.554 5.11893 19.6324 4.98259 18.4754 5.27183C18.0735 5.37229 17.8292 5.77948 17.9297 6.18133C18.0301 6.58318 18.4373 6.8275 18.8392 6.72705Z" fill="#5C5C5C"/>
<path fill-rule="evenodd" clip-rule="evenodd" d="M12.7429 4.04755C12.3666 3.05001 11.2868 2.48091 10.2353 2.76265C9.18381 3.0444 8.53325 4.07715 8.70608 5.12923C8.50431 5.1226 8.2982 5.14518 8.09316 5.20012C7.04166 5.48187 6.39111 6.51463 6.56394 7.56671C6.36218 7.56008 6.15606 7.58266 5.95103 7.6376C4.83112 7.93768 4.16602 9.08966 4.4661 10.2096L6.44607 17.5989C7.32523 20.88 10.6972 22.8268 13.9783 21.9476L15.5335 21.5309C17.5197 20.9987 19.108 19.5087 19.7671 17.5612L21.593 12.1636C21.9216 11.1937 21.5195 10.1262 20.6322 9.61394C19.6044 9.02054 18.2903 9.37266 17.6969 10.4005L17.3924 10.9278L15.8811 5.28743C15.581 4.16752 14.4291 3.50242 13.3092 3.8025C13.1041 3.85744 12.9143 3.94093 12.7429 4.04755ZM11.3584 4.63581C11.2727 4.3161 10.9432 4.12588 10.6235 4.21154C10.3038 4.29721 10.1136 4.62668 10.1993 4.94639L12.1792 12.3357C12.2864 12.7358 12.049 13.1471 11.6489 13.2543C11.2488 13.3615 10.8376 13.124 10.7303 12.724L9.21737 7.07743L9.21624 7.07328C9.13057 6.75357 8.8011 6.56335 8.48139 6.64901C8.16168 6.73468 7.97146 7.06415 8.05713 7.38386L9.57122 13.0345C9.67843 13.4346 9.44099 13.8459 9.04089 13.9531C8.64079 14.0603 8.22954 13.8229 8.12233 13.4228L7.0752 9.5148L7.0741 9.51076C6.98844 9.19105 6.65896 9.00083 6.33926 9.08649C6.01955 9.17216 5.82933 9.50163 5.91499 9.82134L7.89496 17.2107C8.5597 19.6915 11.1092 21.1635 13.59 20.4987L15.1453 20.082C16.6468 19.6797 17.8478 18.5532 18.3463 17.0803L20.1722 11.6827C20.2713 11.3902 20.1501 11.0677 19.8822 10.913C19.5719 10.7338 19.1751 10.8401 18.9959 11.1505L17.7862 13.2459C17.6345 13.5086 17.3395 13.6541 17.0387 13.6145C16.738 13.5749 16.4907 13.358 16.4122 13.065L14.4322 5.67566C14.3466 5.35595 14.0171 5.16573 13.6974 5.25139C13.3794 5.33659 13.1895 5.66295 13.2717 5.98101L14.7872 11.6369C14.8944 12.037 14.657 12.4483 14.2569 12.5555C13.8568 12.6627 13.4456 12.4252 13.3383 12.0251L11.8258 6.3803L11.8242 6.37447L11.8216 6.36469L11.3584 4.63581Z" fill="#5C5C5C"/>
<path d="M4.35875 15.2179C4.47939 14.8216 4.25595 14.4026 3.85969 14.282C3.46343 14.1613 3.04441 14.3848 2.92377 14.781C2.70553 15.4979 2.55528 16.2283 2.62258 17.0087C2.69076 17.7994 2.97634 18.5801 3.53321 19.4154C3.76298 19.7601 4.22863 19.8532 4.57328 19.6235C4.91792 19.3937 5.01105 18.928 4.78129 18.5834C4.33817 17.9187 4.15981 17.3759 4.11703 16.8798C4.07337 16.3735 4.16512 15.8539 4.35875 15.2179Z" fill="#5C5C5C"/>
<path d="M3.1876 12.5298C3.48049 12.2369 3.48049 11.762 3.1876 11.4691C2.89471 11.1762 2.41983 11.1762 2.12694 11.4691C1.51898 12.0771 1.15821 12.8175 0.948989 13.449C0.741245 14.0761 0.664604 14.6517 0.664602 14.9829C0.664601 15.3971 1.00039 15.7329 1.4146 15.7329C1.82881 15.7329 2.1646 15.3971 2.1646 14.9829C2.1646 14.8307 2.20929 14.4145 2.37288 13.9207C2.53499 13.4314 2.79556 12.9218 3.1876 12.5298Z" fill="#5C5C5C"/>
</svg>
