<svg width="16" height="18" viewBox="0 0 16 18" fill="none" xmlns="http://www.w3.org/2000/svg">
<path d="M4.35355 5.64645C4.15829 5.45118 3.84171 5.45118 3.64645 5.64645C3.45118 5.84171 3.45118 6.15829 3.64645 6.35355L7.29289 10L3.64645 13.6464C3.45118 13.8417 3.45118 14.1583 3.64645 14.3536C3.84171 14.5488 4.15829 14.5488 4.35355 14.3536L8 10.7071L11.6464 14.3536C11.8417 14.5488 12.1583 14.5488 12.3536 14.3536C12.5488 14.1583 12.5488 13.8417 12.3536 13.6464L8.70711 10L12.3536 6.35355C12.5488 6.15829 12.5488 5.84171 12.3536 5.64645C12.1583 5.45118 11.8417 5.45118 11.6464 5.64645L8 9.29289L4.35355 5.64645Z" fill="#5C5C5C"/>
</svg>
