<svg width="24" height="24" viewBox="0 0 24 24" fill="none" xmlns="http://www.w3.org/2000/svg">
<path d="M14.6413 3.4746C12.9981 2.56277 11.0019 2.56277 9.35872 3.4746L3.18443 6.90476C1.39983 7.89609 1.39985 10.4619 3.18447 11.4532L5.28264 12.6189V12.2C5.28264 11.8088 5.59978 11.4916 5.99099 11.4916C6.3822 11.4916 6.69934 11.8088 6.69934 12.2V13.4059L9.35854 14.8833C11.0008 15.7953 12.9985 15.795 14.6416 14.8832L17.2996 13.4065V12.2C17.2996 11.9385 17.4413 11.7101 17.6521 11.5874L13.9527 13.6426C12.7378 14.3168 11.2611 14.3167 10.0474 13.6427L3.87351 10.2127C3.06215 9.76205 3.06219 8.59588 3.87355 8.14519L10.0473 4.71535C11.262 4.0414 12.738 4.0414 13.9527 4.71535L20.1265 8.14521C20.9378 8.5959 20.9378 9.76207 20.1264 10.2128L17.677 11.5735C17.7758 11.5212 17.8884 11.4916 18.008 11.4916C18.3992 11.4916 18.7163 11.8088 18.7163 12.2V12.6194L20.8156 11.4532C22.6001 10.4619 22.6001 7.89606 20.8155 6.90474L14.6413 3.4746Z" fill="#5C5C5C"/>
<path d="M18.7163 12.2C18.7163 11.8088 18.3992 11.4916 18.008 11.4916C17.8884 11.4916 17.7758 11.5212 17.677 11.5735L17.6521 11.5874C17.4413 11.7101 17.2996 11.9385 17.2996 12.2V13.4065L18.7163 12.6194V12.2Z" fill="#5C5C5C"/>
<path fill-rule="evenodd" clip-rule="evenodd" d="M5.99099 11.4916C6.3822 11.4916 6.69934 11.8088 6.69934 12.2V13.4059L5.28264 12.6189V12.2C5.28264 11.8088 5.59978 11.4916 5.99099 11.4916ZM17.677 11.5735L17.6521 11.5874C17.6603 11.5826 17.6686 11.578 17.677 11.5735Z" fill="#5C5C5C"/>
<path d="M7.64732 17.8932C7.05551 17.4994 6.69934 16.8356 6.69934 16.124V13.4059L5.28264 12.6189V16.124C5.28264 17.3103 5.87652 18.4166 6.86266 19.0728L8.46979 20.1418C10.6083 21.5638 13.3916 21.5639 15.5293 20.1417L17.1363 19.0728C18.1241 18.4162 18.7163 17.3086 18.7163 16.124V12.6194L17.2996 13.4065V16.124C17.2996 16.8352 16.9437 17.4997 16.3517 17.8932L14.7446 18.9622C13.0824 20.068 10.9176 20.0681 9.2542 18.9621L7.64732 17.8932Z" fill="#5C5C5C"/>
</svg>
