<svg width="24" height="24" viewBox="0 0 24 24" fill="none" xmlns="http://www.w3.org/2000/svg">
<path fill-rule="evenodd" clip-rule="evenodd" d="M12.354 7.03134L8.08533 2.76267C7.40197 2.08106 6.29394 2.0794 5.61067 2.76267L2.76335 5.60999C2.07861 6.29345 2.0793 7.40196 2.76267 8.08533L7.03134 12.354L3.53167 15.8537C3.3103 16.075 3.15342 16.3513 3.07515 16.6522L2.33292 19.5241C1.99779 20.8199 3.17853 21.9995 4.47472 21.6606L7.33922 20.9137C7.64013 20.835 7.91524 20.6774 8.13533 20.4573L11.635 16.9577L15.9147 21.2373C16.598 21.9189 17.7061 21.9206 18.3893 21.2373L21.2373 18.3893C21.9189 17.706 21.9206 16.5979 21.2373 15.9147L16.9587 11.636L20.8903 7.70433C21.9624 6.63226 21.952 4.89537 20.8813 3.82467L20.1653 3.10867C19.0946 2.03797 17.3577 2.0276 16.2857 3.09967L12.354 7.03134ZM7.0251 3.82377C6.92645 3.72562 6.76798 3.72668 6.67133 3.82333L3.82333 6.67133C3.72651 6.76791 3.72485 6.92619 3.82333 7.02467L12.1325 15.3338C12.144 15.344 12.1553 15.3546 12.1663 15.3657C12.1774 15.3767 12.188 15.388 12.1982 15.3995L16.9747 20.176C17.0733 20.274 17.2321 20.2733 17.3287 20.1767L20.176 17.3294C20.274 17.2307 20.2733 17.0719 20.1767 16.9753L19.101 15.8997L18.1303 16.8703C17.8374 17.1632 17.3626 17.1632 17.0697 16.8703C16.7768 16.5774 16.7768 16.1026 17.0697 15.8097L18.0403 14.839L16.721 13.5197L16.2503 13.9903C15.9574 14.2832 15.4826 14.2832 15.1897 13.9903C14.8968 13.6974 14.8968 13.2226 15.1897 12.9297L15.6603 12.459L14.131 10.9297L13.1603 11.9003C12.8674 12.1932 12.3926 12.1932 12.0997 11.9003C11.8068 11.6074 11.8068 11.1326 12.0997 10.8397L13.0703 9.869L11.824 8.62267L11.7483 8.54701L11.2777 9.01299C10.9833 9.30441 10.5084 9.30202 10.217 9.00766C9.92559 8.7133 9.92798 8.23843 10.2223 7.94701L10.6877 7.48633L9.161 5.95966L8.19033 6.93033C7.89744 7.22322 7.42256 7.22322 7.12967 6.93033C6.83678 6.63744 6.83678 6.16256 7.12967 5.86967L8.10034 4.899L7.0251 3.82377ZM13.4147 8.092L15.898 10.5753L17.6013 8.872L15.118 6.38866L13.4147 8.092ZM16.1787 5.328L18.662 7.81134L19.8297 6.64367C20.3096 6.16374 20.312 5.37663 19.8207 4.88533L19.1047 4.16933C18.6134 3.67803 17.8263 3.6804 17.3463 4.16033L16.1787 5.328ZM10.5743 15.897L8.092 13.4147L4.59233 16.9143C4.5618 16.9449 4.53873 16.9844 4.52696 17.0294L3.78514 19.8997C3.73645 20.0878 3.90754 20.2585 4.09529 20.2094L6.96017 19.4624C7.00327 19.4511 7.04277 19.4286 7.07467 19.3967L10.5743 15.897Z" fill="#5C5C5C"/>
</svg>
