<svg width="24" height="24" viewBox="0 0 24 24" fill="none" xmlns="http://www.w3.org/2000/svg">
<path fill-rule="evenodd" clip-rule="evenodd" d="M19.92 9.66H19.85C19.7561 9.66116 19.664 9.63416 19.5855 9.58247C19.5071 9.53078 19.446 9.45677 19.41 9.37C19.41 9.31 19.36 9.25 19.34 9.2C19.2957 9.09411 19.2844 8.97732 19.3076 8.86491C19.3308 8.7525 19.3874 8.64971 19.47 8.57C19.6636 8.38343 19.8175 8.15976 19.9227 7.91234C20.0279 7.66492 20.0821 7.39884 20.0821 7.13C20.0821 6.86116 20.0279 6.59508 19.9227 6.34766C19.8175 6.10024 19.6636 5.87657 19.47 5.69L18.74 4.97C18.5534 4.77644 18.3298 4.62247 18.0823 4.51731C17.8349 4.41215 17.5688 4.35795 17.3 4.35795C17.0312 4.35795 16.7651 4.41215 16.5177 4.51731C16.2702 4.62247 16.0466 4.77644 15.86 4.97C15.7777 5.04862 15.6745 5.10178 15.5627 5.12307C15.451 5.14437 15.3354 5.13288 15.23 5.09L15.06 5.02C14.9732 4.98403 14.8992 4.92289 14.8475 4.84447C14.7958 4.76604 14.7688 4.67392 14.77 4.58V4.5C14.77 3.96957 14.5593 3.46086 14.1842 3.08579C13.8091 2.71071 13.3004 2.5 12.77 2.5H11.77C11.2396 2.5 10.7309 2.71071 10.3558 3.08579C9.98071 3.46086 9.77 3.96957 9.77 4.5V4.57C9.77116 4.66392 9.74416 4.75604 9.69247 4.83447C9.64078 4.91289 9.56677 4.97403 9.48 5.01L9.21 5.08C9.10411 5.12428 8.98732 5.13556 8.87491 5.11236C8.7625 5.08917 8.65971 5.03258 8.58 4.95C8.39343 4.75644 8.16976 4.60247 7.92234 4.49731C7.67492 4.39215 7.40884 4.33795 7.14 4.33795C6.87116 4.33795 6.60508 4.39215 6.35766 4.49731C6.11024 4.60247 5.88657 4.75644 5.7 4.95L4.98 5.68C4.78644 5.86657 4.63247 6.09024 4.52731 6.33766C4.42215 6.58508 4.36795 6.85116 4.36795 7.12C4.36795 7.38884 4.42215 7.65492 4.52731 7.90234C4.63247 8.14976 4.78644 8.37343 4.98 8.56C5.06177 8.64474 5.11529 8.75273 5.13319 8.86912C5.1511 8.98552 5.13252 9.1046 5.08 9.21C5.05237 9.26824 5.02897 9.32839 5.01 9.39C4.97403 9.47677 4.91289 9.55078 4.83447 9.60247C4.75604 9.65416 4.66392 9.68116 4.57 9.68H4.5C3.96957 9.68 3.46086 9.89071 3.08579 10.2658C2.71071 10.6409 2.5 11.1496 2.5 11.68V12.68C2.5 13.2104 2.71071 13.7191 3.08579 14.0942C3.46086 14.4693 3.96957 14.68 4.5 14.68H4.57C4.66392 14.6788 4.75604 14.7058 4.83447 14.7575C4.91289 14.8092 4.97403 14.8832 5.01 14.97C5.02726 15.029 5.05073 15.086 5.08 15.14C5.12428 15.2459 5.13556 15.3627 5.11236 15.4751C5.08917 15.5875 5.03258 15.6903 4.95 15.77C4.75644 15.9566 4.60247 16.1802 4.49731 16.4277C4.39215 16.6751 4.33795 16.9412 4.33795 17.21C4.33795 17.4788 4.39215 17.7449 4.49731 17.9923C4.60247 18.2398 4.75644 18.4634 4.95 18.65L5.68 19.37C5.86657 19.5636 6.09024 19.7175 6.33766 19.8227C6.58508 19.9279 6.85116 19.9821 7.12 19.9821C7.38884 19.9821 7.65492 19.9279 7.90234 19.8227C8.14976 19.7175 8.37343 19.5636 8.56 19.37C8.65347 19.3018 8.76492 19.2626 8.88049 19.2573C8.99606 19.252 9.11065 19.2807 9.21 19.34L9.39 19.41C9.47677 19.446 9.55078 19.5071 9.60247 19.5855C9.65416 19.664 9.68116 19.7561 9.68 19.85V19.92C9.68 20.4504 9.89071 20.9591 10.2658 21.3342C10.6409 21.7093 11.1496 21.92 11.68 21.92H12.68C13.2104 21.92 13.7191 21.7093 14.0942 21.3342C14.4693 20.9591 14.68 20.4504 14.68 19.92V19.85C14.6788 19.7561 14.7058 19.664 14.7575 19.5855C14.8092 19.5071 14.8832 19.446 14.97 19.41L15.14 19.34C15.2476 19.2962 15.3658 19.2852 15.4796 19.3084C15.5935 19.3315 15.698 19.3877 15.78 19.47C15.9666 19.6636 16.1902 19.8175 16.4377 19.9227C16.6851 20.0279 16.9512 20.0821 17.22 20.0821C17.4888 20.0821 17.7549 20.0279 18.0023 19.9227C18.2498 19.8175 18.4734 19.6636 18.66 19.47L19.39 18.74C19.5836 18.5534 19.7375 18.3298 19.8427 18.0823C19.9479 17.8349 20.0021 17.5688 20.0021 17.3C20.0021 17.0312 19.9479 16.7651 19.8427 16.5177C19.7375 16.2702 19.5836 16.0466 19.39 15.86C19.3074 15.7803 19.2508 15.6775 19.2276 15.5651C19.2044 15.4527 19.2157 15.3359 19.26 15.23C19.26 15.23 19.31 15.12 19.33 15.06C19.366 14.9732 19.4271 14.8992 19.5055 14.8475C19.584 14.7958 19.6761 14.7688 19.77 14.77H19.84C20.3704 14.77 20.8791 14.5593 21.2542 14.1842C21.6293 13.8091 21.84 13.3004 21.84 12.77V11.77C21.8548 11.5049 21.8167 11.2394 21.7278 10.9892C21.6389 10.7389 21.5011 10.5089 21.3224 10.3125C21.1436 10.1161 20.9276 9.95721 20.6868 9.84519C20.446 9.73316 20.1854 9.67021 19.92 9.66ZM20.3018 13.1018C20.4031 13.0006 20.46 12.8632 20.46 12.72V11.75C20.46 11.6068 20.4031 11.4694 20.3018 11.3682C20.2006 11.2669 20.0632 11.21 19.92 11.21H19.85C19.4474 11.1935 19.0592 11.0558 18.7363 10.8149C18.4133 10.574 18.1706 10.2412 18.04 9.86L17.98 9.71C17.8205 9.33055 17.7772 8.91231 17.8555 8.50823C17.9338 8.10414 18.1303 7.73238 18.42 7.44C18.5201 7.33888 18.5763 7.20232 18.5763 7.06C18.5763 6.91768 18.5201 6.78112 18.42 6.68L17.7 5.96C17.5989 5.85985 17.4623 5.80367 17.32 5.80367C17.1777 5.80367 17.0411 5.85985 16.94 5.96C16.6491 6.25204 16.2772 6.45009 15.8726 6.52853C15.4679 6.60697 15.049 6.5622 14.67 6.4H14.53C14.1663 6.25062 13.8547 5.99736 13.6342 5.67188C13.4137 5.3464 13.2939 4.96314 13.29 4.57V4.5C13.29 4.35678 13.2331 4.21943 13.1318 4.11816C13.0306 4.01689 12.8932 3.96 12.75 3.96H11.75C11.6068 3.96 11.4694 4.01689 11.3682 4.11816C11.2669 4.21943 11.21 4.35678 11.21 4.5V4.57C11.2048 4.96946 11.0801 5.35821 10.852 5.68616C10.6238 6.01411 10.3027 6.26622 9.93 6.41L9.78 6.47C9.39904 6.63032 8.9791 6.67409 8.57327 6.59578C8.16744 6.51746 7.79394 6.32057 7.5 6.03C7.39888 5.92985 7.26232 5.87367 7.12 5.87367C6.97768 5.87367 6.84112 5.92985 6.74 6.03L6.02 6.75C5.91985 6.85112 5.86367 6.98768 5.86367 7.13C5.86367 7.27232 5.91985 7.40888 6.02 7.51C6.30971 7.80238 6.50617 8.17414 6.58449 8.57823C6.66282 8.98231 6.61949 9.40055 6.46 9.78C6.43647 9.82507 6.41641 9.87188 6.4 9.92C6.25844 10.293 6.00854 10.6152 5.68243 10.8451C5.35632 11.075 4.96891 11.202 4.57 11.21H4.5C4.36183 11.2098 4.22884 11.2625 4.12839 11.3574C4.02794 11.4523 3.96768 11.582 3.96 11.72V12.72C3.96 12.8632 4.01689 13.0006 4.11816 13.1018C4.21943 13.2031 4.35678 13.26 4.5 13.26H4.61C5.00314 13.2639 5.3864 13.3837 5.71188 13.6042C6.03736 13.8247 6.29062 14.1363 6.44 14.5L6.5 14.64C6.66096 15.0199 6.70411 15.4394 6.62388 15.8442C6.54364 16.2489 6.34372 16.6202 6.05 16.91C5.94985 17.0111 5.89367 17.1477 5.89367 17.29C5.89367 17.4323 5.94985 17.5689 6.05 17.67L6.78 18.39C6.88112 18.4902 7.01768 18.5463 7.16 18.5463C7.30232 18.5463 7.43888 18.4902 7.54 18.39C7.83238 18.1003 8.20414 17.9038 8.60823 17.8255C9.01231 17.7472 9.43055 17.7905 9.81 17.95L9.95 18.01C10.3137 18.1594 10.6253 18.4126 10.8458 18.7381C11.0663 19.0636 11.1861 19.4469 11.19 19.84V19.91C11.19 20.0532 11.2469 20.1906 11.3482 20.2918C11.4494 20.3931 11.5868 20.45 11.73 20.45H12.73C12.8009 20.45 12.8711 20.436 12.9366 20.4089C13.0022 20.3818 13.0617 20.342 13.1118 20.2918C13.162 20.2417 13.2018 20.1822 13.2289 20.1166C13.256 20.0511 13.27 19.9809 13.27 19.91V19.84C13.2739 19.4469 13.3937 19.0636 13.6142 18.7381C13.8347 18.4126 14.1463 18.1594 14.51 18.01L14.65 17.95C15.0294 17.7905 15.4477 17.7472 15.8518 17.8255C16.2559 17.9038 16.6276 18.1003 16.92 18.39C17.0211 18.4902 17.1577 18.5463 17.3 18.5463C17.4423 18.5463 17.5789 18.4902 17.68 18.39L18.4 17.67C18.5002 17.5689 18.5563 17.4323 18.5563 17.29C18.5563 17.1477 18.5002 17.0111 18.4 16.91C18.1103 16.6176 17.9138 16.2459 17.8355 15.8418C17.7572 15.4377 17.8005 15.0195 17.96 14.64C17.9764 14.5919 17.9965 14.5451 18.02 14.5C18.1694 14.1363 18.4226 13.8247 18.7481 13.6042C19.0736 13.3837 19.4569 13.2639 19.85 13.26H19.92C20.0632 13.26 20.2006 13.2031 20.3018 13.1018Z" fill="#5C5C5C"/>
<path fill-rule="evenodd" clip-rule="evenodd" d="M9.55999 9.55999C9.03508 10.0842 8.67746 10.7524 8.53239 11.48C8.38732 12.2075 8.46131 12.9618 8.745 13.6473C9.02869 14.3328 9.50933 14.9187 10.1261 15.331C10.7429 15.7432 11.4681 15.9633 12.21 15.9633C12.9519 15.9633 13.6771 15.7432 14.2939 15.331C14.9107 14.9187 15.3913 14.3328 15.675 13.6473C15.9587 12.9618 16.0327 12.2075 15.8876 11.48C15.7425 10.7524 15.3849 10.0842 14.86 9.55999C14.1569 8.85774 13.2037 8.46329 12.21 8.46329C11.2162 8.46329 10.2631 8.85774 9.55999 9.55999ZM12.648 14.4165C13.0845 14.3295 13.4854 14.1149 13.8 13.8C14.2213 13.3781 14.458 12.8062 14.458 12.21C14.458 11.6137 14.2213 11.0419 13.8 10.62C13.4854 10.305 13.0845 10.0905 12.648 10.0034C12.2115 9.91638 11.7589 9.96078 11.3476 10.131C10.9363 10.3012 10.5848 10.5896 10.3374 10.9597C10.09 11.3297 9.95801 11.7649 9.95801 12.21C9.95801 12.6551 10.09 13.0902 10.3374 13.4603C10.5848 13.8304 10.9363 14.1188 11.3476 14.289C11.7589 14.4592 12.2115 14.5036 12.648 14.4165Z" fill="#5C5C5C"/>
</svg>
