<svg width="24" height="25" viewBox="0 0 24 25" fill="none" xmlns="http://www.w3.org/2000/svg">
<path fill-rule="evenodd" clip-rule="evenodd" d="M12 4.75208C9.19057 4.75208 6.79026 6.46931 5.77366 8.90634C3.1937 9.46817 1.25 11.7443 1.25 14.5021C1.25 17.6773 3.82479 20.2521 7 20.2521H18C20.6232 20.2521 22.75 18.1253 22.75 15.5021C22.75 13.1217 20.9988 11.1501 18.7145 10.8055C18.3659 7.40461 15.493 4.75208 12 4.75208ZM12 6.25208C9.69501 6.25208 7.73911 7.74021 7.034 9.81174C6.94247 10.0806 6.70689 10.2748 6.42546 10.3132C4.3475 10.5969 2.75 12.3576 2.75 14.5021C2.75 16.8489 4.65321 18.7521 7 18.7521H18C19.7948 18.7521 21.25 17.2969 21.25 15.5021C21.25 13.7073 19.7948 12.2521 18 12.2521C17.5858 12.2521 17.25 11.9163 17.25 11.5021C17.25 8.60229 14.8998 6.25208 12 6.25208Z" fill="#5C5C5C"/>
<path d="M12.5303 10.4717C12.2374 10.1789 11.7626 10.1789 11.4697 10.4717L9.30267 12.6387C9.00978 12.9316 9.00978 13.4065 9.30267 13.6994C9.59556 13.9923 10.0704 13.9923 10.3633 13.6994L11.25 12.8127V16.0021C11.25 16.4163 11.5858 16.7521 12 16.7521C12.4142 16.7521 12.75 16.4163 12.75 16.0021V12.8127L13.6367 13.6994C13.9296 13.9923 14.4044 13.9923 14.6973 13.6994C14.9902 13.4065 14.9902 12.9316 14.6973 12.6387L12.5303 10.4717Z" fill="#5C5C5C"/>
</svg>
