<svg width="24" height="24" viewBox="0 0 24 24" fill="none" xmlns="http://www.w3.org/2000/svg">
<path fill-rule="evenodd" clip-rule="evenodd" d="M7.99833 5.76709C6.48427 5.76709 5.25688 6.99448 5.25688 8.50855C5.25688 10.0226 6.48427 11.25 7.99833 11.25C9.5124 11.25 10.7398 10.0226 10.7398 8.50855C10.7398 6.99448 9.5124 5.76709 7.99833 5.76709ZM3.75688 8.50855C3.75688 6.16606 5.65584 4.26709 7.99833 4.26709C10.3408 4.26709 12.2398 6.16606 12.2398 8.50855C12.2398 10.851 10.3408 12.75 7.99833 12.75C5.65584 12.75 3.75688 10.851 3.75688 8.50855ZM17.0021 7.74792C16.035 7.74792 15.251 8.53188 15.251 9.49896C15.251 10.466 16.035 11.25 17.0021 11.25C17.9692 11.25 18.7531 10.466 18.7531 9.49896C18.7531 8.53189 17.9692 7.74792 17.0021 7.74792ZM13.751 9.49896C13.751 7.70346 15.2066 6.24792 17.0021 6.24792C18.7976 6.24792 20.2531 7.70346 20.2531 9.49896C20.2531 11.2945 18.7976 12.75 17.0021 12.75C15.2066 12.75 13.751 11.2945 13.751 9.49896ZM5.98049 15.7513C4.19379 15.7513 2.74583 17.1992 2.74583 18.9859V20.0033C2.74583 20.4175 2.41005 20.7533 1.99583 20.7533C1.58162 20.7533 1.24583 20.4175 1.24583 20.0033V18.9859C1.24583 16.3708 3.36536 14.2513 5.98049 14.2513H10.0162C12.6313 14.2513 14.7508 16.3708 14.7508 18.9859V20.0033C14.7508 20.4175 14.415 20.7533 14.0008 20.7533C13.5866 20.7533 13.2508 20.4175 13.2508 20.0033V18.9859C13.2508 17.1992 11.8029 15.7513 10.0162 15.7513H5.98049ZM16.2521 15.0013C16.2521 14.587 16.5879 14.2513 17.0021 14.2513H18.1045C20.7197 14.2513 22.8392 16.3708 22.8392 18.9859V20.0033C22.8392 20.4175 22.5034 20.7533 22.0892 20.7533C21.675 20.7533 21.3392 20.4175 21.3392 20.0033V18.9859C21.3392 17.1992 19.8912 15.7513 18.1045 15.7513H17.0021C16.5879 15.7513 16.2521 15.4155 16.2521 15.0013Z" fill="#5C5C5C"/>
</svg>
