<svg width="24" height="24" viewBox="0 0 24 24" fill="none" xmlns="http://www.w3.org/2000/svg">
<path fill-rule="evenodd" clip-rule="evenodd" d="M19.7 21.8H4.29999C3.19999 21.8 2.19999 21.2 1.59999 20.3C0.999994 19.4 0.999994 18.2 1.59999 17.2L9.29999 3.8C9.89999 2.8 10.9 2.2 12 2.2C13.1 2.2 14.1 2.8 14.7 3.8L22.4 17.2C23 18.2 22.9 19.3 22.4 20.3C21.9 21.3 20.8 21.8 19.7 21.8ZM10.6 4.5C10.9 4 11.4 3.7 12 3.7C12.6 3.7 13.1 4 13.4 4.5L21.1 17.9C21.4 18.4 21.4 19 21.1 19.5C20.8 20 20.3 20.3 19.7 20.3H4.39999C3.79999 20.3 3.29999 20 2.99999 19.5C2.69999 19 2.69999 18.4 2.99999 17.9L10.6 4.5Z" fill="#F7B500"/>
<path d="M12 13.9C11.6 13.9 11.2 13.6 11.2 13.1V9.4C11.2 9 11.5 8.6 12 8.6C12.5 8.6 12.8 8.9 12.8 9.4V13.1C12.8 13.5 12.4 13.9 12 13.9Z" fill="#F7B500"/>
<path d="M12 17.4C11.4 17.4 11 17 11 16.4C11 16.1 11.1 15.9 11.3 15.7C11.5 15.5 11.7 15.4 12 15.4C12.6 15.4 13 15.8 13 16.4C13 17 12.6 17.4 12 17.4Z" fill="#F7B500"/>
</svg>
